<svg xmlns="http://www.w3.org/2000/svg" viewBox="0 0 420 280" role="img" aria-labelledby="project1Title">
  <title id="project1Title">Dashboard performance graph visualization</title>
  <rect width="420" height="280" rx="32" fill="#07111f" />
  <rect x="28" y="28" width="140" height="16" rx="8" fill="#0ea5e9" />
  <rect x="28" y="58" width="200" height="12" rx="6" fill="#16233a" />
  <rect x="28" y="84" width="350" height="12" rx="6" fill="#16233a" />
  <rect x="28" y="116" width="380" height="18" rx="9" fill="#0f1c2f" />
  <path d="M40 146c22-16 48-24 78-14s56 38 80 50 62-24 90-18 52 36 84 14" fill="none" stroke="#22d3ee" stroke-width="10" stroke-linecap="round" />
  <g opacity="0.92">
    <rect x="28" y="196" width="96" height="56" rx="16" fill="#0f172a" />
    <rect x="134" y="196" width="96" height="56" rx="16" fill="#0f172a" />
    <rect x="240" y="196" width="96" height="56" rx="16" fill="#0f172a" />
  </g>
  <circle cx="338" cy="90" r="28" fill="#0ea5e9" opacity="0.16" />
  <circle cx="370" cy="198" r="18" fill="#14b8a6" opacity="0.22" />
</svg>
